<?xml version="1.0" encoding="utf-8"?>
<!-- Generator: Adobe Illustrator 21.1.0, SVG Export Plug-In . SVG Version: 6.00 Build 0)  -->
<svg version="1.1" id="Layer_1" xmlns="http://www.w3.org/2000/svg" xmlns:xlink="http://www.w3.org/1999/xlink" x="0px" y="0px"
	 viewBox="0 0 770 298" style="enable-background:new 0 0 770 298;" xml:space="preserve">
<style type="text/css">
	.st0{fill:#603A17;}
	.st1{fill:#F88E00;}
</style>
<g>
	<g>
		<path class="st0" d="M38.2,258.7c0.5,0,0.7,0.3,0.7,0.8v1.1c0,0.5-0.2,0.8-0.7,0.8H24.9v9.8h11.5c0.6,0,0.7,0.2,0.7,0.7v1.1
			c0,0.5-0.2,0.8-0.7,0.8H24.9v11.2c0,0.6-0.2,0.8-0.7,0.8h-1.2c-0.6,0-0.8-0.2-0.8-0.8v-25.3c0-0.6,0.2-0.8,0.8-0.8H38.2z"/>
		<path class="st0" d="M69.4,284.7c0.2,0.5,0,0.7-0.5,0.7h-1.1c-0.8,0-1.2-0.2-1.4-0.7l-2.8-7.2H51.8l-2.8,7.2
			c-0.2,0.6-0.4,0.7-1.3,0.7h-1c-0.5,0-0.7-0.2-0.5-0.7l10.1-25.5c0.2-0.4,0.5-0.6,0.9-0.6h1.1c0.5,0,0.8,0.2,1,0.6L69.4,284.7z
			 M58.4,263.7c-0.3-1-0.5-1.9-0.5-2.6h-0.2c0,0.8-0.2,1.7-0.5,2.6l-4.6,11.6h10.3L58.4,263.7z"/>
		<path class="st0" d="M78.7,267.6c0-5.9,3.7-9.5,10.3-9.5c5.6,0,8.7,2.1,10,6.4c0.2,0.6,0.1,0.8-0.5,1l-1.2,0.4
			c-0.5,0.1-0.8,0-1-0.5c-1.1-3.4-3.2-4.9-7.4-4.9c-4.9,0-7.6,2.5-7.6,6.9v9c0,4.3,2.7,6.9,7.6,6.9c4.3,0,6.4-1.5,7.5-5
			c0.2-0.5,0.5-0.6,1-0.5l1.2,0.5c0.5,0.2,0.6,0.5,0.5,0.9c-1.4,4.4-4.4,6.6-10.1,6.6c-6.6,0-10.3-3.5-10.3-9.5V267.6z"/>
		<path class="st0" d="M113.5,276.3c0,4.5,2.5,7.1,7.4,7.1c4.9,0,7.4-2.6,7.4-7.1v-16.9c0-0.6,0.2-0.8,0.8-0.8h1.2
			c0.6,0,0.8,0.2,0.8,0.8v16.9c0,6-3.5,9.7-10.1,9.7c-6.6,0-10.1-3.7-10.1-9.7v-16.9c0-0.6,0.2-0.8,0.8-0.8h1.2
			c0.6,0,0.8,0.2,0.8,0.8V276.3z"/>
		<path class="st0" d="M146.3,258.7c0.6,0,0.7,0.2,0.7,0.8v23.5h12.8c0.5,0,0.7,0.3,0.7,0.8v1.1c0,0.5-0.2,0.8-0.7,0.8H145
			c-0.6,0-0.8-0.2-0.8-0.8v-25.3c0-0.6,0.2-0.8,0.8-0.8H146.3z"/>
		<path class="st0" d="M180.2,258.7c6.9,0,10.9,3.8,10.9,10v6.9c0,6.2-4,10-10.9,10h-8c-0.6,0-0.8-0.2-0.8-0.8v-25.3
			c0-0.6,0.2-0.8,0.8-0.8H180.2z M188.4,268.6c0-4.7-2.9-7.4-8.2-7.4h-6v21.6h6c5.3,0,8.2-2.7,8.2-7.4V268.6z"/>
		<path class="st0" d="M224,284.7c0.2,0.5,0,0.7-0.5,0.7h-1.1c-0.8,0-1.2-0.2-1.4-0.7l-2.8-7.2h-11.8l-2.8,7.2
			c-0.2,0.6-0.4,0.7-1.3,0.7h-1c-0.5,0-0.7-0.2-0.5-0.7l10.1-25.5c0.2-0.4,0.5-0.6,0.9-0.6h1.1c0.5,0,0.8,0.2,1,0.6L224,284.7z
			 M212.9,263.7c-0.3-1-0.5-1.9-0.5-2.6h-0.2c0,0.8-0.2,1.7-0.5,2.6l-4.6,11.6h10.3L212.9,263.7z"/>
		<path class="st0" d="M243.4,258.7c6.9,0,10.9,3.8,10.9,10v6.9c0,6.2-4,10-10.9,10h-8c-0.6,0-0.8-0.2-0.8-0.8v-25.3
			c0-0.6,0.2-0.8,0.8-0.8H243.4z M251.6,268.6c0-4.7-2.9-7.4-8.2-7.4h-6v21.6h6c5.3,0,8.2-2.7,8.2-7.4V268.6z"/>
		<path class="st0" d="M282.9,258.7c0.5,0,0.7,0.3,0.7,0.8v1.1c0,0.5-0.2,0.8-0.7,0.8h-13.3v9.4h11.6c0.5,0,0.7,0.3,0.7,0.8v1.1
			c0,0.5-0.2,0.8-0.7,0.8h-11.6v9.7h13.8c0.5,0,0.7,0.3,0.7,0.8v1.1c0,0.5-0.2,0.8-0.7,0.8h-15.8c-0.6,0-0.8-0.2-0.8-0.8v-25.3
			c0-0.6,0.2-0.8,0.8-0.8H282.9z"/>
		<path class="st0" d="M336,258.7c0.6,0,0.8,0.2,0.8,0.8v25.3c0,0.6-0.2,0.8-0.8,0.8h-1.1c-0.6,0-0.8-0.2-0.8-0.8l0-15.4
			c0-2.3,0.2-4.5,0.5-6.7h-0.2c-0.8,1.9-1.8,3.9-2.9,5.9l-5.7,10.1c-0.2,0.4-0.5,0.6-0.9,0.6h-0.8c-0.4,0-0.7-0.2-0.9-0.6l-5.8-10.2
			c-0.9-1.6-1.8-3.5-2.8-5.8h-0.2c0.3,2.3,0.4,4.5,0.4,6.7v15.4c0,0.6-0.2,0.8-0.8,0.8h-1.1c-0.6,0-0.8-0.2-0.8-0.8v-25.3
			c0-0.6,0.2-0.8,0.8-0.8h1c0.5,0,0.8,0.2,1.1,0.6l9.4,16.6l9.3-16.5c0.3-0.6,0.5-0.6,1.1-0.6H336z"/>
		<path class="st0" d="M349.4,267.6c0-5.9,3.7-9.5,10.4-9.5c6.6,0,10.3,3.5,10.3,9.5v8.9c0,5.9-3.7,9.5-10.3,9.5
			c-6.7,0-10.4-3.5-10.4-9.5V267.6z M367.4,267.6c0-4.4-2.7-6.9-7.6-6.9c-4.9,0-7.7,2.5-7.7,6.9v8.9c0,4.4,2.7,6.9,7.7,6.9
			c4.9,0,7.6-2.5,7.6-6.9V267.6z"/>
		<path class="st0" d="M394.1,258.7c5,0,7.9,2.9,7.9,7.8c0,4.1-2.3,6.8-6.1,7.4c1,0.5,1.8,1.3,2.5,2.6l4.2,8.2
			c0.3,0.5,0.2,0.8-0.4,0.8h-1.2c-0.8,0-1.3-0.2-1.5-0.7l-3.7-7.3c-1.2-2.4-2.5-3.3-5.4-3.3h-5.1v10.5c0,0.6-0.2,0.8-0.7,0.8h-1.2
			c-0.6,0-0.8-0.2-0.8-0.8v-25.3c0-0.6,0.2-0.8,0.8-0.8H394.1z M393.9,261.2h-8.4v10.4h8.4c3.4,0,5.4-1.8,5.4-5.2
			C399.2,263.1,397.3,261.2,393.9,261.2z"/>
		<path class="st0" d="M433.7,271.6c0.6,0,0.8,0.2,0.8,0.8v4.6c0,5.5-3.7,9-10.3,9c-6.7,0-10.4-3.6-10.4-9.5v-8.9
			c0-5.9,3.7-9.5,10.3-9.5c5.6,0,8.7,2.1,10,6.4c0.2,0.6,0.1,0.8-0.5,1l-1.2,0.4c-0.5,0.1-0.8,0-1-0.5c-1.1-3.4-3.2-4.9-7.4-4.9
			c-5,0-7.6,2.5-7.6,6.9v8.9c0,4.4,2.7,7,7.7,7c4.9,0,7.7-2.5,7.7-6.5v-2.8h-7.3c-0.6,0-0.8-0.2-0.8-0.8v-1.1c0-0.6,0.2-0.8,0.8-0.8
			H433.7z"/>
		<path class="st0" d="M467.3,284.7c0.2,0.5,0,0.7-0.5,0.7h-1.1c-0.8,0-1.2-0.2-1.4-0.7l-2.8-7.2h-11.8l-2.8,7.2
			c-0.2,0.6-0.4,0.7-1.3,0.7h-1c-0.5,0-0.7-0.2-0.5-0.7l10.1-25.5c0.2-0.4,0.5-0.6,0.9-0.6h1.1c0.5,0,0.8,0.2,1,0.6L467.3,284.7z
			 M456.2,263.7c-0.3-1-0.5-1.9-0.5-2.6h-0.2c0,0.8-0.2,1.7-0.5,2.6l-4.6,11.6h10.3L456.2,263.7z"/>
		<path class="st0" d="M497.4,258.7c0.6,0,0.8,0.2,0.8,0.8v25.3c0,0.6-0.2,0.8-0.8,0.8h-1.2c-0.4,0-0.6-0.2-0.8-0.4l-12-17.3
			c-0.5-0.8-1.1-1.8-1.8-3.2c-0.7-1.3-1.1-2-1.2-2.2h-0.2c0,0.2,0.1,1.1,0.2,2.7c0.1,1.6,0.2,2.9,0.2,4v15.7c0,0.5-0.2,0.8-0.7,0.8
			h-1.2c-0.6,0-0.8-0.2-0.8-0.8v-25.3c0-0.6,0.2-0.8,0.8-0.8h1.2c0.3,0,0.6,0.1,0.8,0.4l11.7,16.9c0.6,0.8,1.2,1.9,2,3.3
			c0.7,1.4,1.2,2.1,1.4,2.4h0.1c0-0.3-0.1-1.2-0.2-2.9c-0.2-1.6-0.2-3-0.2-4.1v-15.3c0-0.5,0.3-0.7,0.8-0.7H497.4z"/>
		<path class="st0" d="M532.6,284.7c0.2,0.5,0,0.7-0.5,0.7H531c-0.8,0-1.2-0.2-1.4-0.7l-2.8-7.2H515l-2.8,7.2
			c-0.2,0.6-0.4,0.7-1.3,0.7h-1c-0.5,0-0.7-0.2-0.5-0.7l10.1-25.5c0.2-0.4,0.5-0.6,0.9-0.6h1.1c0.5,0,0.8,0.2,1,0.6L532.6,284.7z
			 M521.5,263.7c-0.3-1-0.5-1.9-0.5-2.6h-0.2c0,0.8-0.2,1.7-0.5,2.6l-4.6,11.6h10.3L521.5,263.7z"/>
		<path class="st0" d="M569.5,258.7c5.3,0,8.5,3.1,8.5,8.4c0,5.2-3.2,8.3-8.5,8.3h-8.1v9.3c0,0.6-0.2,0.8-0.7,0.8h-1.2
			c-0.6,0-0.8-0.2-0.8-0.8v-25.3c0-0.6,0.2-0.8,0.8-0.8H569.5z M569.3,272.8c3.7,0,5.9-2.2,5.9-5.8c0-3.6-2.3-5.8-5.9-5.8h-7.9v11.6
			H569.3z"/>
		<path class="st0" d="M588.9,267.6c0-5.9,3.7-9.5,10.4-9.5c6.6,0,10.3,3.5,10.3,9.5v8.9c0,5.9-3.7,9.5-10.3,9.5
			c-6.7,0-10.4-3.5-10.4-9.5V267.6z M606.9,267.6c0-4.4-2.7-6.9-7.6-6.9c-4.9,0-7.7,2.5-7.7,6.9v8.9c0,4.4,2.7,6.9,7.7,6.9
			c4.9,0,7.6-2.5,7.6-6.9V267.6z"/>
		<path class="st0" d="M638.1,258.7c0.6,0,0.8,0.2,0.8,0.8v1.1c0,0.6-0.2,0.8-0.8,0.8h-7.6v23.5c0,0.6-0.2,0.8-0.8,0.8h-1.2
			c-0.6,0-0.8-0.2-0.8-0.8v-23.5h-7.6c-0.6,0-0.8-0.2-0.8-0.8v-1.1c0-0.6,0.2-0.8,0.8-0.8H638.1z"/>
		<path class="st0" d="M661.3,258.7c5,0,7.9,2.9,7.9,7.8c0,4.1-2.3,6.8-6.1,7.4c1,0.5,1.8,1.3,2.5,2.6l4.2,8.2
			c0.3,0.5,0.2,0.8-0.4,0.8h-1.2c-0.8,0-1.3-0.2-1.5-0.7l-3.7-7.3c-1.2-2.4-2.5-3.3-5.4-3.3h-5.1v10.5c0,0.6-0.2,0.8-0.7,0.8h-1.2
			c-0.6,0-0.8-0.2-0.8-0.8v-25.3c0-0.6,0.2-0.8,0.8-0.8H661.3z M661,261.2h-8.4v10.4h8.4c3.4,0,5.4-1.8,5.4-5.2
			C666.3,263.1,664.4,261.2,661,261.2z"/>
		<path class="st0" d="M681.7,259.4c0-0.6,0.2-0.8,0.8-0.8h1.2c0.6,0,0.7,0.2,0.7,0.8v25.3c0,0.6-0.2,0.8-0.7,0.8h-1.2
			c-0.6,0-0.8-0.2-0.8-0.8V259.4z"/>
		<path class="st0" d="M697,267.6c0-5.9,3.7-9.5,10.3-9.5c5.6,0,8.7,2.1,10,6.4c0.2,0.6,0.1,0.8-0.5,1l-1.2,0.4
			c-0.5,0.1-0.8,0-1-0.5c-1.1-3.4-3.2-4.9-7.4-4.9c-4.9,0-7.6,2.5-7.6,6.9v9c0,4.3,2.7,6.9,7.6,6.9c4.3,0,6.4-1.5,7.5-5
			c0.2-0.5,0.5-0.6,1-0.5l1.2,0.5c0.5,0.2,0.6,0.5,0.5,0.9c-1.4,4.4-4.4,6.6-10.1,6.6c-6.6,0-10.3-3.5-10.3-9.5V267.6z"/>
		<path class="st0" d="M748.4,258.7c0.5,0,0.7,0.3,0.7,0.8v25.3c0,0.5-0.2,0.8-0.7,0.8h-1.2c-0.6,0-0.8-0.2-0.8-0.8v-11.5h-14.4
			v11.5c0,0.6-0.2,0.8-0.7,0.8h-1.2c-0.6,0-0.8-0.2-0.8-0.8v-25.3c0-0.6,0.2-0.8,0.8-0.8h1.2c0.6,0,0.7,0.2,0.7,0.8v11.2h14.4v-11.2
			c0-0.6,0.2-0.8,0.8-0.8H748.4z"/>
	</g>
	<g>
		<g>
			<path class="st1" d="M574.7,194.4l-0.2-2.5c-0.6-7.6-1.2-15.3-1.7-22.9c-0.6-7.4-1.1-14.7-1.7-22.1c-0.5-6.3-0.9-12.6-1.4-18.9
				c-0.5-6.1-0.9-12.3-1.4-18.4c-0.7-9.1-1.4-18.2-2.1-27.3l-1.3-17.5c-0.7-8.7-1.6-17.9-5-26.9c-4.3-11.5-11.9-19.1-22.5-22.6
				c-9.8-3.2-20.4-3.7-31.5-1.6c-8.8,1.7-16,6.1-21.3,13c-4.6,6-7.7,13.1-9.5,21.7c-1.4,7.1-2.4,14.3-3.4,21.6
				c-0.9,7.1-1.8,14.3-2.6,21.3c-0.4,3.5-0.8,7.1-1.3,10.6c-0.9,7-1.7,14-2.6,21.1l-1.8,15.1c-0.4,3.4-0.8,6.8-1.2,10.2
				c-0.8,6.9-1.7,14-2.6,21l-0.1,1.2c-0.6,5-1.3,10.2-2.3,15.2c-0.1,0.4-0.1,0.6-0.2,0.8c-0.3,0-0.8,0-1.2,0c-0.1,0-0.2,0-0.3,0
				c-0.1-0.2-0.2-0.7-0.4-1.4c-0.9-5.9-1.7-12-2.4-17.9l-0.2-1.9c-1.3-10.2-2.5-20.3-3.8-30.5l-1.3-10.5c-1.1-9.3-2.3-18.7-3.4-28
				c-0.6-4.7-1.1-9.3-1.7-14c-0.7-5.8-1.4-11.7-2.1-17.5c-1.1-9.1-2.5-18.7-6.4-28C429.3,26,422.3,19,412.6,15.4
				c-6.4-2.3-13-2.8-20.9-2.8l-0.5,0c-0.5,0.1-1.2,0.1-1.9,0.2c-1.9,0.2-4.2,0.4-6.5,0.7c-13.2,2.1-22.7,8.9-28.2,20.2
				c-4.7,9.7-6,19.7-6.7,29.1c-0.6,7.8-1.1,15.5-1.7,23.3c-0.4,5-0.7,10.1-1.1,15.1c-0.8,11-1.6,22.1-2.4,33.1l-0.9,12.7
				c-0.3,3.9-0.6,7.8-0.9,11.7c-0.7,8.9-1.4,18.1-2,27.1c-0.6,8.3-1,15.8-1.2,23.4c-0.1,6.9,4.3,11.8,11.2,12.4
				c4,0.3,7.3,0.5,10.4,0.5c1.6,0,3.2,0,4.6-0.1c9.2-0.6,14.3-5.5,15-14.6c0.3-3.1,0.5-6.2,0.7-9.3l0.7-10.4
				c0.9-12.7,1.7-25.4,2.6-38.1c0.4-6.6,0.9-13.2,1.3-19.8c0.4-5.8,0.8-11.6,1.1-17.4l0.7-9.9c0.7-11,1.5-22.5,2.3-33.7
				c0.5-6.4,1.1-11.3,2.1-15.7c0.4-2,1.2-3,4.2-3l0.1,0c2.9,0,3.7,1.1,4.2,3c1.2,4.9,2.3,10.3,3.3,16.9c1.4,9.4,2.7,19,3.9,28.2
				c0.5,3.9,1.1,7.8,1.6,11.7l1.7,12c1.1,8.1,2.2,16.2,3.3,24.3c0.5,3.5,0.9,7.1,1.4,10.6c0.9,7,1.9,14.2,2.9,21.3l0.1,0.5
				c1,6.4,2,13.1,3.7,19.5c3.5,12.9,12.2,20.9,25.1,23.1c3.6,0.6,7.3,0.9,10.9,0.9c4.3,0,8.6-0.4,12.9-1.3
				c8.9-1.8,15.2-6.2,18.7-12.9c2.3-4.4,4-8.8,4.8-13.1c1.2-5.8,2-11.7,2.8-17.5c0.2-1.5,0.4-3.1,0.6-4.6c1.3-9.6,2.7-19.4,3.9-28.9
				l1.1-8.1c1.6-12,3.2-24.1,4.8-36.1c0.5-3.4,0.9-6.8,1.3-10.2c1-7.5,2-15.2,3.1-22.8c0.7-5,1.8-9.8,3.1-14.3
				c0.4-1.3,0.9-2.4,3.9-2.4c3.4,0,3.9,1.4,4.2,2.2c0.6,1.7,1.3,3.8,1.5,5.8c1.2,15.1,2.2,30.5,3.3,45.4l0.4,5.3
				c0.6,8.3,1.1,16.6,1.7,24.9c0.3,5.1,0.7,10.2,1,15.3c0.3,3.7,0.5,7.5,0.8,11.2c0.7,10,1.4,20.4,2.2,30.5
				c0.5,6.3,1.1,13.1,2.1,19.8c0.9,6.3,5.5,10.4,12,11c6.1,0.5,10.7,0.6,15,0.4c6.5-0.3,14.2-3.3,13.7-15.6
				C575.4,202.4,575,198.4,574.7,194.4z"/>
		</g>
		<g>
			<path class="st1" d="M743,50.7c-5-13.1-14-22.7-26.7-28.8c-9.6-4.5-20.2-7-31.7-7.2c-9.4-0.2-19.4-0.3-32.3-0.3
				c-5.9,0-11.7,0-17.6,0l-5,0c-4.6,0-8.9,0.4-12.9,1.1c-12.2,2.2-20.3,9-24,20c-2.3,6.7-2.6,13.5-2.6,19.3c0,17.6,0,35.2,0,52.9
				l0,19l0,16.4c0,19.6,0,39.2,0,58.8c0,2.6,0.2,5.2,0.5,7.9c0.8,6.7,5.3,11.2,11.8,11.8c3.9,0.3,7.2,0.5,10.2,0.5
				c1.3,0,2.7,0,3.9-0.1c9-0.4,13.5-4.7,14.5-13.9c0.2-1.8,0.3-3.7,0.3-6.2c0-13,0-26,0-38.9l0-10c4.4,0,8.8,0,13.2,0
				c11.6,0,23.7,0,35.5-0.1c12.2-0.1,22.7-2,32.2-5.7c10.3-4.1,18.5-10.3,24.2-18.4c7.2-10.3,11.1-22.5,11.4-36.1
				c0.1-2.5,0-5.1,0-7.5c0-2.5,0-5.2,0-7.7C748.1,68.7,746.5,59.9,743,50.7z M705.6,98.5c-2.1,8.1-7.7,12.8-16.9,14.3
				c-4.1,0.7-8.5,1-13.6,1.1c-5.9,0.1-12.3,0.1-20.3,0.1c-4.2,0-2.2,0-6.5,0c-3.6,0-13.4,15.5-17,15.5c0-4,0-23.5,0-27.5
				c0-13.9,0-28.3,0.1-42.5c0-4.1,1.6-5.6,5.7-5.6c8.8-0.1,15.6-0.1,21.9-0.1c8.5,0,16.1,0.1,23.3,0.2c5.8,0.1,10.8,1.4,15.1,4
				c4.6,2.8,7.5,7.1,8.7,13.3C708.1,80.7,707.9,89.9,705.6,98.5z"/>
		</g>
		<g>
			<path class="st1" d="M148.6,108c-1.1-5.3-4.9-8.9-10.4-9.7c-2.8-0.4-5.6-0.6-8.2-0.6c-21.9,0-43.8,0-65.7,0c-0.5,0-0.9,0-1.4,0.1
				c0-0.5,0-1,0-1.4l0-5.3c0-10.4,0-21.1,0.1-31.7c0-3.1,1-5.2,5.5-5.4c1.3-0.1,2.6-0.1,4.1-0.1l21.5,0c15.8,0,31.7,0,47.5,0
				c2.3,0,4.7-0.1,7.4-0.4c7.1-0.7,11.5-5,12-11.7c0.4-4.9,0.4-9.9,0-14.9c-0.5-6.2-4.3-10.4-10.4-11.6c-2.3-0.4-4.4-0.6-6.3-0.6
				c-27.6,0-55.2-0.1-82.8,0c-4.8,0-9.3,0.4-13.3,1.1c-11.8,2.1-19.8,8.5-23.6,18.9c-2.7,7.3-3.1,14.7-3.1,20.4c0,17.5,0,35,0,52.6
				l0,19.3l0,16.1c0,19.7,0,39.4,0,59.1c0,2.5,0.2,5.1,0.5,7.7c0.9,7.1,5.2,11.4,12.1,12c3.6,0.3,6.7,0.5,9.6,0.5c1.5,0,3,0,4.4-0.1
				c9.1-0.6,13.4-4.8,14.3-14c0.2-2,0.3-4,0.3-6.2c0-16.7,0-33.4,0-50.1v-14.9l29.9,0c12.3,0,24.6,0,37,0c3,0,6-0.2,8.9-0.7
				c5-0.8,8.5-4.1,9.7-9.1C149.8,120.9,149.9,114.5,148.6,108z"/>
		</g>
		<g>
			<path class="st1" d="M331.2,209.9c-0.2-1.7-0.5-3.3-0.9-4.7c-1.9-6.9-3.7-13.8-5.6-20.7l-0.2-0.6c-7.2-26.1-14.3-52.2-21.5-78.3
				c-1.2-4.2-2.3-8.4-3.5-12.6c-2.8-10.4-5.8-21.2-8.8-31.8c-2.6-9.2-5.6-19-10.5-28c-5.7-10.4-13.6-17-23.6-19.4
				c-6-1.6-13.6-1.9-19-1.9c-4.5,0-8.3,0.2-10,0.5c-12.7,1.6-22.3,7.7-28.8,18.1c-3.9,6.4-7,13.7-9.8,23c-3.3,11.4-6.6,23-9.7,34.2
				l-2.2,8c-2.9,10.3-5.7,20.6-8.5,30.8l-4.9,17.7c-3.7,13.3-7.4,27-11.1,40.5c-2.4,8.8-4.4,16.1-6.1,23.8c-0.8,3.4-0.3,6.5,1.5,8.9
				c1.7,2.4,4.6,3.9,8,4.2c4.8,0.4,9.7,0.6,14.5,0.4c8.1-0.3,14-4.5,16.6-12c0.8-2.3,1.4-4.1,1.8-5.8c3.5-12.6,6.9-25,10.2-37.3
				c19.4,0,38.9,0,58.3,0c5.9,0,10.1-5.5,8.6-11.2l-5.3-20.2c-1-3.9-4.6-6.7-8.6-6.7h-42.9l3.2-11.8c4.7-17.3,9.6-35.3,14.4-52.9
				c0.9-3.4,2.1-6.6,3.3-9.5c1.8-4,4.1-5.5,9-5.5l0.4,0c4,0.1,6.9,1.5,9,8.2c2.4,8,4.7,16.2,6.9,24.2c1.5,5.7,3.1,11.3,4.6,17l0,0
				l0.2,0.9c1.9,6.9,3.7,13.8,5.6,20.7l2.4,8.8h0l16.7,62.2c1.5,5.6,3.1,11.3,4.7,16.9c0.8,2.7,3.3,11.1,12.4,13.1
				c3.4,0.8,7,1.2,10.7,1.2c3.3,0,6.7-0.3,10.1-0.9C328.4,220.5,331.9,215.7,331.2,209.9z"/>
		</g>
	</g>
</g>
</svg>
